<?xml version='1.0' encoding='utf-8'?>
<svg xmlns="http://www.w3.org/2000/svg" enable-background="new 0 0 1000 1000" version="1.1" viewBox="0 0 1e3 1e3"> <style type="text/css">.st0{fill:#442F00;} .st1{fill:#7F5603;} .st2{fill:#5B5B5B;} .st3{fill:#919191;}</style> <polygon class="st0" points="843.55 789.03 767.42 867.93 460.13 560.64 537.64 483.13"/> <path class="st1" d="m666.37 772.42-23.73-23.13c-4.11-4.39-4.92-5.93-3.21-9.41l48.68-104.74c1.71-3.48 3.86-3.22 5.94-1.13l26.71 25.92c2.35 3.14 4.92 5.93 3.21 9.41l-51.45 101.97c-1.71 3.49-3.38 3.88-6.15 1.11z"/> <path class="st1" d="m702.36 808.41-26.5-25.9c-4.11-4.39-4.92-5.93-3.21-9.41l51.45-101.97c1.71-3.48 3.86-3.22 5.94-1.13l26.71 25.92c2.35 3.14 4.92 5.93 3.21 9.41l-51.45 101.97c-1.71 3.49-3.38 3.88-6.15 1.11z"/> <path class="st1" d="m738.35 844.4-26.5-25.9c-4.11-4.39-4.92-5.93-3.21-9.41l51.45-101.97c1.71-3.48 3.86-3.22 5.94-1.13l26.71 25.92c2.35 3.14 4.92 5.93 3.21 9.41l-51.45 101.97c-1.71 3.49-3.38 3.88-6.15 1.11z"/> <path class="st1" d="m796.49 741.97-34.6 67.82 67.88-35.64c3.47-1.74 3.85-3.42 1.05-6.16l-23.33-23.53c-4.44-4.07-11-2.49-11-2.49z"/> <path class="st1" d="m638.69 739.2 31.84-67.82-65.06 34.6c-3.45 1.78-2.77 2.77 0.55 6.09l22.22 24.65c4.47 4.02 10.45 2.48 10.45 2.48z"/> <polygon class="st2" points="756.19 865.01 792.18 901 818.54 899.56 876.56 841.54 878 815.18 842.01 779.19"/> <polygon class="st3" points="89.39 491.22 89.39 491.22 79.99 570.85 258.84 749.69 338.47 740.3 338.47 740.3 371.62 707.15 122.54 458.07"/> <polygon class="st3" points="468.22 112.39 468.22 112.39 547.85 102.99 726.69 281.84 717.3 361.47 717.3 361.47 684.15 394.62 435.07 145.54"/> <rect class="st2" transform="matrix(.7071 -.7071 .7071 .7071 -183.33 410.08)" x="135.47" y="250.22" width="535.74" height="352.25"/> </svg>